<?xml version="1.0" encoding="UTF-8" standalone="no"?>
<svg
   xmlns:dc="http://purl.org/dc/elements/1.1/"
   xmlns:cc="http://creativecommons.org/ns#"
   xmlns:rdf="http://www.w3.org/1999/02/22-rdf-syntax-ns#"
   xmlns:svg="http://www.w3.org/2000/svg"
   xmlns="http://www.w3.org/2000/svg"
   xmlns:sodipodi="http://sodipodi.sourceforge.net/DTD/sodipodi-0.dtd"
   xmlns:inkscape="http://www.inkscape.org/namespaces/inkscape"
   version="1.1"
   width="720"
   height="618"
   xml:space="preserve"
   id="svg84"
   sodipodi:docname="amCharts.pixelMap.svg"
   inkscape:version="1.0 (b51213c273, 2020-08-10)"><metadata
   id="metadata90"><rdf:RDF><cc:Work
       rdf:about=""><dc:format>image/svg+xml</dc:format><dc:type
         rdf:resource="http://purl.org/dc/dcmitype/StillImage" /><dc:title></dc:title></cc:Work></rdf:RDF></metadata><defs
   id="defs88" /><sodipodi:namedview
   pagecolor="#ffffff"
   bordercolor="#666666"
   borderopacity="1"
   objecttolerance="10"
   gridtolerance="10"
   guidetolerance="10"
   inkscape:pageopacity="0"
   inkscape:pageshadow="2"
   inkscape:window-width="1600"
   inkscape:window-height="781"
   id="namedview86"
   showgrid="false"
   inkscape:zoom="0.32782388"
   inkscape:cx="974.37672"
   inkscape:cy="459.97636"
   inkscape:window-x="0"
   inkscape:window-y="34"
   inkscape:window-maximized="1"
   inkscape:current-layer="svg84"
   inkscape:document-rotation="0" />
        <desc
   id="desc2">JavaScript chart by amCharts 3.21.15</desc>
        <desc
   id="desc4">This map was created using Pixel Map Generator by amCharts and is licensed under the Creative Commons Attribution 4.0 International License. You may use this map the way you see fit as long as proper attribution to the name of amCharts is given in the form of link to http://pixelmap.amcharts.com/ To view a copy of this license, visit http://creativecommons.org/licenses/by/4.0/ If you would like to use this map without any attribution, you can acquire a commercial license for the JavaScript Maps - a tool that was used to produce this map. To do so, visit amCharts Online Store: http://www.amcharts.com/online-store/</desc>
        
        <g
   id="Madagascar"
   style="fill:#000000;fill-opacity:0"
   transform="translate(-342.5007,0.56869525)">
            <g
   transform="translate(527.57562,-3.74224)"
   id="g56"
   style="fill:#000000;fill-opacity:0">
                <g
   transform="scale(0.38880396)"
   id="g54"
   style="fill:#000000;fill-opacity:0">
                    <path
   cs="100,100"
   d="m 592.93,970.91 -49.48,-23.19 -9.21,25.32 -33.08,1.52 -18.32,12.66 -17.89,50.06 -13.77,124.3 -28.91,16.34 90.03,50.01 z"
   transform="translate(0,10)"
   stroke-width="2.57199"
   fill="#818181"
   fill-opacity="1"
   stroke="#505050"
   stroke-opacity="1"
   class="amcharts-map-area amcharts-map-area-MG-FI-VF"
   role="menuitem"
   aria-label="Vatovavy-Fitovinany  "
   countryId="MG-FI-VF"
   id="path10"
   style="fill:#000000;fill-opacity:0" />
                    <path
   cs="100,100"
   d="m 511.51,874.37 -34.17,-20.46 2.75,-30.63 H 467.7 l -15.14,18.95 -46.81,-10.2 -37.17,21.88 -45.43,2.92 -38.87,0.97 -2.6,50.24 41.63,23.5 8.01,-8.21 7.51,22.52 26.39,7.56 35.84,-1.34 41.61,-24.5 51.53,2.98 14.51,-32.69 z"
   transform="translate(0,10)"
   stroke-width="2.57199"
   fill="#818181"
   fill-opacity="1"
   stroke="#505050"
   stroke-opacity="1"
   class="amcharts-map-area amcharts-map-area-MG-AV-VA"
   role="menuitem"
   aria-label="Vakinankaratra  "
   countryId="MG-AV-VA"
   id="path12"
   style="fill:#000000;fill-opacity:0" />
                    <path
   cs="100,100"
   d="m 645.75,254.06 -13.86,-5.9 -15.82,11.56 -33.47,-19.48 -16.03,5.27 -21.42,-12.02 7.2,-16.87 -23.73,22.49 -3.82,29.7 -8.37,-27.16 2.57,16.61 -16.77,-1.06 -9.82,25.31 5.65,17.5 5.6,-6.24 13.42,2.38 9.56,7.22 0.42,12.15 -5.3,-13.05 -5.27,9.95 -13.57,-16.29 -40.6,61.53 9.82,-32.76 -7.94,-16.82 -42.74,59.37 19.72,25.28 -9.64,3.53 4.5,64.49 16.52,32.96 63.51,24.69 6.59,-29.92 34.39,-1.44 36.91,25.82 6.64,33.65 25.36,-9.33 33.22,-49.83 -23.58,-15.24 12.84,-74.28 -11.55,-11.28 37.84,-13.6 11.26,-31.94 13.5,-2.29 -21.11,-50.88 z"
   transform="translate(0,10)"
   stroke-width="2.57199"
   fill="#818181"
   fill-opacity="1"
   stroke="#505050"
   stroke-opacity="1"
   class="amcharts-map-area amcharts-map-area-MG-MA-SF"
   role="menuitem"
   aria-label="Sofia  "
   countryId="MG-MA-SF"
   id="path14"
   style="fill:#000000;fill-opacity:0" />
                    <path
   cs="100,100"
   d="m 759.12,450.27 11.16,5.87 11.72,-18.25 17.75,-63.78 -31.71,-57.04 -7.35,-109.71 -22.06,-84.65 -33.69,-40.49 -26.61,30.14 9.63,9.89 -13.76,36.76 6.88,22.65 -9.64,41.1 -25.69,31.3 32.63,33.78 21.11,50.88 49.71,26.37 z"
   transform="translate(0,10)"
   stroke-width="2.57199"
   fill="#818181"
   fill-opacity="1"
   stroke="#505050"
   stroke-opacity="1"
   class="amcharts-map-area amcharts-map-area-MG-AS-SV"
   role="menuitem"
   aria-label="Sava  "
   countryId="MG-AS-SV"
   id="path16"
   style="fill:#000000;fill-opacity:0" />
                    <path
   cs="100,100"
   d="m 258.7,722.57 -59.07,-11.26 -24.18,21.13 31.88,100.96 -30.54,7.65 -61.28,-18.89 22.86,39.35 -11.97,33.84 11.32,24.8 -62.89,105.15 -9.76,40.2 -29.73,10.04 40.06,66.19 46.57,-1.41 29.9,-10.26 15.72,-58.84 34.41,10.35 56.45,-45.77 23.95,-5.07 -0.72,-122.69 2.6,-50.24 0.08,-25.64 -33.63,-35.58 13.9,-44.53 z"
   transform="translate(0,10)"
   stroke-width="2.57199"
   fill="#818181"
   fill-opacity="1"
   stroke="#505050"
   stroke-opacity="1"
   class="amcharts-map-area amcharts-map-area-MG-TL-ME"
   role="menuitem"
   aria-label="Menabe  "
   countryId="MG-TL-ME"
   id="path18"
   style="fill:#000000;fill-opacity:0" />
                    <path
   cs="100,100"
   d="m 182.11,483.38 -47.6,-1.54 -1.54,57.82 -54.73,90.21 37.27,192.29 61.28,18.89 30.54,-7.65 -31.88,-100.96 24.18,-21.13 59.07,11.26 25.64,-6.44 17.79,-48.7 -10.64,-44.25 h -31.67 l -9.63,-51.88 -52.32,-51.75 z"
   transform="translate(0,10)"
   stroke-width="2.57199"
   fill="#818181"
   fill-opacity="1"
   stroke="#505050"
   stroke-opacity="1"
   class="amcharts-map-area amcharts-map-area-MG-MA-ME"
   role="menuitem"
   aria-label="Melaky  "
   countryId="MG-MA-ME"
   id="path20"
   style="fill:#000000;fill-opacity:0" />
                    <path
   cs="100,100"
   d="m 429.67,774.59 -51.45,-2.25 -55.07,84.49 45.43,-2.92 37.17,-21.88 46.81,10.2 15.14,-18.95 -18.73,-42.25 z"
   transform="translate(0,10)"
   stroke-width="2.57199"
   fill="#818181"
   fill-opacity="1"
   stroke="#505050"
   stroke-opacity="1"
   class="amcharts-map-area amcharts-map-area-MG-AV-IT"
   role="menuitem"
   aria-label="Itasy  "
   countryId="MG-AV-IT"
   id="path22"
   style="fill:#000000;fill-opacity:0" />
                    <path
   cs="100,100"
   d="m 414.01,1189.82 -49.56,-7.44 -15.14,-35.65 -19.28,-10.38 -77.9,-18.61 -31.12,28.69 9.45,28.09 -34.24,86.39 9.07,20.52 29.66,8.48 6.22,-30.47 63.76,-21.01 51.92,59.73 1.98,56.33 38.66,-4.71 -1.38,-73.45 41.3,11.97 z"
   transform="translate(0,10)"
   stroke-width="2.57199"
   fill="#818181"
   fill-opacity="1"
   stroke="#505050"
   stroke-opacity="1"
   class="amcharts-map-area amcharts-map-area-MG-FI-HO"
   role="menuitem"
   aria-label="Ihorombe  "
   countryId="MG-FI-HO"
   id="path24"
   style="fill:#000000;fill-opacity:0" />
                    <path
   cs="100,100"
   d="m 464.95,1037.28 -26.16,-11.79 -39.92,19.16 -28.91,-35.36 h -17.9 l -71.06,33.92 -28.87,74.53 77.9,18.61 19.28,10.38 15.14,35.65 49.56,7.44 8.26,-11.9 28.91,-16.34 z"
   transform="translate(0,10)"
   stroke-width="2.57199"
   fill="#818181"
   fill-opacity="1"
   stroke="#505050"
   stroke-opacity="1"
   class="amcharts-map-area amcharts-map-area-MG-FI-HM"
   role="menuitem"
   aria-label="Haute Matsiatra  "
   countryId="MG-FI-HM"
   id="path26"
   style="fill:#000000;fill-opacity:0" />
                    <path
   cs="100,100"
   d="m 560.78,147.32 -14.83,1.39 3.94,15.39 15.56,0.02 z M 663.67,0 l -34.53,60.3 -23.71,-5.06 24.76,42.43 -19.25,64.55 -19.25,6.96 -13.48,-9.6 5.7,18.11 -22.07,2.89 -6.92,29.29 -22.2,-32.57 -18.03,9.71 -1.43,27.88 15.36,24.22 23.73,-22.49 -7.2,16.87 21.42,12.02 16.03,-5.27 33.47,19.48 15.82,-11.56 13.86,5.9 25.69,-31.3 9.64,-41.1 -6.88,-22.65 13.76,-36.76 -9.63,-9.89 26.61,-30.14 -10.57,-33.37 -34.03,-17.55 3.75,-9.21 12,6.52 z"
   transform="translate(0,10)"
   stroke-width="2.57199"
   fill="#818181"
   fill-opacity="1"
   stroke="#505050"
   stroke-opacity="1"
   class="amcharts-map-area amcharts-map-area-MG-AS-DI"
   role="menuitem"
   aria-label="Diana  "
   countryId="MG-AS-DI"
   id="path28"
   style="fill:#000000;fill-opacity:0" />
                    <path
   cs="100,100"
   d="m 370.35,659.82 -45.59,15.83 -22.63,-8.22 -17.79,48.7 -25.64,6.44 5.93,29.48 -13.9,44.53 33.63,35.58 -0.08,25.64 38.87,-0.97 55.07,-84.49 51.45,2.25 -46.2,-69.78 z"
   transform="translate(0,10)"
   stroke-width="2.57199"
   fill="#818181"
   fill-opacity="1"
   stroke="#505050"
   stroke-opacity="1"
   class="amcharts-map-area amcharts-map-area-MG-AV-BO"
   role="menuitem"
   aria-label="Bongolava  "
   countryId="MG-AV-BO"
   id="path30"
   style="fill:#000000;fill-opacity:0" />
                    <path
   cs="100,100"
   d="m 431.54,396.26 -20.81,11.76 12.8,-25.72 -13.76,-14.3 -67.78,49.21 -3.71,21.19 18.66,16.11 -15.13,2.34 -20.53,-31.24 -14.12,10.11 5.53,7.96 -44.53,-6.64 -5.36,28.08 -4.62,-12.17 -20.95,3.51 -8.96,15.8 -3.46,-21.5 -42.7,32.62 15.76,36.17 52.32,51.75 56.44,1.44 24.78,28.81 38.55,-33.13 12.89,-39.19 66.95,7.55 -13.76,-24.41 16.52,-18.66 -16.52,-32.96 z"
   transform="translate(0,10)"
   stroke-width="2.57199"
   fill="#818181"
   fill-opacity="1"
   stroke="#505050"
   stroke-opacity="1"
   class="amcharts-map-area amcharts-map-area-MG-MA-BO"
   role="menuitem"
   aria-label="Boeny  "
   countryId="MG-MA-BO"
   id="path32"
   style="fill:#000000;fill-opacity:0" />
                    <path
   cs="100,100"
   d="m 516.07,518.4 -63.51,-24.69 -16.52,18.66 13.76,24.41 -66.95,-7.55 -12.89,39.19 -38.55,33.13 -24.78,-28.81 -56.44,-1.44 9.63,51.88 h 31.67 l 10.64,44.25 22.63,8.22 45.59,-15.83 33,-2.57 16.97,14.95 27.52,-11.36 34.58,22.37 32.11,-5.44 33.11,-84.89 z"
   transform="translate(0,10)"
   stroke-width="2.57199"
   fill="#818181"
   fill-opacity="1"
   stroke="#505050"
   stroke-opacity="1"
   class="amcharts-map-area amcharts-map-area-MG-MA-BE"
   role="menuitem"
   aria-label="Betsiboka  "
   countryId="MG-MA-BE"
   id="path34"
   style="fill:#000000;fill-opacity:0" />
                    <path
   cs="100,100"
   d="m 592.93,970.91 90.61,-263.79 3.76,-73.94 -15.86,1.55 -4.13,17.33 -45.43,8.67 -24.78,14.46 17.9,31.85 -27.53,11.59 -4.13,15.95 15.14,88.7 -30.28,26.25 -9.64,48.22 -26.16,-8.78 -23.69,8.89 -14.51,32.69 -3.8,32.68 10.76,11.33 33.08,-1.52 9.21,-25.32 z"
   transform="translate(0,10)"
   stroke-width="2.57199"
   fill="#818181"
   fill-opacity="1"
   stroke="#505050"
   stroke-opacity="1"
   class="amcharts-map-area amcharts-map-area-MG-TM-AI"
   role="menuitem"
   aria-label="Atsinanana  "
   countryId="MG-TM-AI"
   id="path36"
   style="fill:#000000;fill-opacity:0" />
                    <path
   cs="100,100"
   d="m 512.3,1227.93 -90.03,-50.01 -8.26,11.9 23.4,98.48 -41.3,-11.97 1.38,73.45 -38.66,4.71 -7.64,18.77 49.01,36.99 4.36,19.8 24.19,-36.21 33.61,17.14 z"
   transform="translate(0,10)"
   stroke-width="2.57199"
   fill="#818181"
   fill-opacity="1"
   stroke="#505050"
   stroke-opacity="1"
   class="amcharts-map-area amcharts-map-area-MG-FI-AA"
   role="menuitem"
   aria-label="Atsimo-Atsinanana  "
   countryId="MG-FI-AA"
   id="path38"
   style="fill:#000000;fill-opacity:0" />
                    <path
   cs="100,100"
   d="m 281,1043.21 1.4,-12.48 -23.95,5.07 -56.45,45.77 -34.41,-10.35 -15.72,58.84 -29.9,10.26 -46.57,1.41 -40.06,-66.19 -35.09,111.87 15.2,70.01 43.96,74.18 -15,35.75 5.29,68.95 26.97,34.31 12.14,45.99 41.34,22.96 -11.93,-4.21 8.03,12.55 39.37,5.69 39.83,-50.59 15.14,-107.37 27.53,-13.56 -1.37,-36.09 -20.65,1.5 8.85,-57.57 -29.66,-8.48 -9.07,-20.52 34.24,-86.39 -9.45,-28.09 31.12,-28.69 z"
   transform="translate(0,10)"
   stroke-width="2.57199"
   fill="#818181"
   fill-opacity="1"
   stroke="#505050"
   stroke-opacity="1"
   class="amcharts-map-area amcharts-map-area-MG-TL-AF"
   role="menuitem"
   aria-label="Atsimo-Andrefana  "
   countryId="MG-TL-AF"
   id="path40"
   style="fill:#000000;fill-opacity:0" />
                    <path
   cs="100,100"
   d="m 358.83,1354.49 -1.98,-56.33 -51.92,-59.73 -63.76,21.01 -6.22,30.47 -8.85,57.57 20.65,-1.5 1.37,36.09 4.36,15 36.25,11.42 11.02,102.9 31.79,29.39 58.48,-5.43 39.16,-26.58 33.18,-97.79 -33.61,-17.14 -24.19,36.21 -4.36,-19.8 -49.01,-36.99 z"
   transform="translate(0,10)"
   stroke-width="2.57199"
   fill="#818181"
   fill-opacity="1"
   stroke="#505050"
   stroke-opacity="1"
   class="amcharts-map-area amcharts-map-area-MG-TL-AY"
   role="menuitem"
   aria-label="Anosy  "
   countryId="MG-TL-AY"
   id="path42"
   style="fill:#000000;fill-opacity:0" />
                    <path
   cs="100,100"
   d="m 213.41,1589.49 43.8,-4.7 74.33,-44.01 -31.79,-29.39 -11.02,-102.9 -36.25,-11.42 -4.36,-15 -27.53,13.56 -15.14,107.37 -39.83,50.59 z"
   transform="translate(0,10)"
   stroke-width="2.57199"
   fill="#818181"
   fill-opacity="1"
   stroke="#505050"
   stroke-opacity="1"
   class="amcharts-map-area amcharts-map-area-MG-TL-AD"
   role="menuitem"
   aria-label="Androy  "
   countryId="MG-TL-AD"
   id="path44"
   style="fill:#000000;fill-opacity:0" />
                    <path
   cs="100,100"
   d="m 699.49,338.72 -13.5,2.29 -11.26,31.94 -37.84,13.6 11.55,11.28 -12.84,74.28 23.58,15.24 -33.22,49.83 -5.16,79.93 -15.44,21.95 16.52,21.67 45.43,-8.67 4.13,-17.33 15.86,-1.55 -4.8,-26.47 18.06,-42.75 26.89,-9.7 -12.69,-8.44 15.19,-35.49 -1.91,-26.61 -17.87,-18.13 3.81,-69.3 20.15,-2.78 24.99,56.76 -9.92,-85.18 z"
   transform="translate(0,10)"
   stroke-width="2.57199"
   fill="#818181"
   fill-opacity="1"
   stroke="#505050"
   stroke-opacity="1"
   class="amcharts-map-area amcharts-map-area-MG-TM-AN"
   role="menuitem"
   aria-label="Analanjirofo  "
   countryId="MG-TM-AN"
   id="path46"
   style="fill:#000000;fill-opacity:0" />
                    <path
   cs="100,100"
   d="m 514.53,677.77 -32.11,5.44 -34.58,-22.37 -27.52,11.36 -16.97,-14.95 -33,2.57 13.12,44.99 46.2,69.78 19.3,6.44 18.73,42.25 h 12.39 l -2.75,30.63 34.17,20.46 17.4,-143.85 z"
   transform="translate(0,10)"
   stroke-width="2.57199"
   fill="#818181"
   fill-opacity="1"
   stroke="#505050"
   stroke-opacity="1"
   class="amcharts-map-area amcharts-map-area-MG-AV-AG"
   role="menuitem"
   aria-label="Analamanga  "
   countryId="MG-AV-AG"
   id="path48"
   style="fill:#000000;fill-opacity:0" />
                    <path
   cs="100,100"
   d="m 494.2,930.55 -51.53,-2.98 -41.61,24.5 -35.84,1.34 -26.39,-7.56 -7.51,-22.52 -8.01,8.21 -41.63,-23.5 0.72,122.69 -1.4,12.48 71.06,-33.92 h 17.9 l 28.91,35.36 39.92,-19.16 26.16,11.79 17.89,-50.06 18.32,-12.66 -10.76,-11.33 z"
   transform="translate(0,10)"
   stroke-width="2.57199"
   fill="#818181"
   fill-opacity="1"
   stroke="#505050"
   stroke-opacity="1"
   class="amcharts-map-area amcharts-map-area-MG-FI-AM"
   role="menuitem"
   aria-label="Amoron'i Mania  "
   countryId="MG-FI-AM"
   id="path50"
   style="fill:#000000;fill-opacity:0" />
                    <path
   cs="100,100"
   d="m 625.96,537.18 -25.36,9.33 -6.64,-33.65 -36.91,-25.82 -34.39,1.44 -6.59,29.92 31.57,74.48 -33.11,84.89 14.38,52.75 -17.4,143.85 -2.8,23.49 23.69,-8.89 26.16,8.78 9.64,-48.22 30.28,-26.25 -15.14,-88.7 4.13,-15.95 27.53,-11.59 -17.9,-31.85 24.78,-14.46 -16.52,-21.67 15.44,-21.95 z"
   transform="translate(0,10)"
   stroke-width="2.57199"
   fill="#818181"
   fill-opacity="1"
   stroke="#505050"
   stroke-opacity="1"
   class="amcharts-map-area amcharts-map-area-MG-TM-AO"
   role="menuitem"
   aria-label="Alaotra-Mangoro  "
   countryId="MG-TM-AO"
   id="path52"
   style="fill:#000000;fill-opacity:0" />
                </g>
            </g>
        </g>
        
    </svg>
